<?xml version="1.0" encoding="UTF-8"?>
<svg xmlns="http://www.w3.org/2000/svg" width="1200" height="640" viewBox="0 0 1200 640" role="img" aria-label="UCYX realistic workflow demo">
  <defs>
    <linearGradient id="softBg" x1="0" y1="0" x2="1" y2="1">
      <stop offset="0" stop-color="#f7f6f3"/>
      <stop offset="1" stop-color="#ebe9e4"/>
    </linearGradient>
    <linearGradient id="photoWarm" x1="0" y1="0" x2="1" y2="1">
      <stop offset="0" stop-color="#f4dfc8"/>
      <stop offset="0.52" stop-color="#d8dfd3"/>
      <stop offset="1" stop-color="#5d7167"/>
    </linearGradient>
    <linearGradient id="photoCool" x1="0" y1="0" x2="1" y2="1">
      <stop offset="0" stop-color="#dce8ef"/>
      <stop offset="0.56" stop-color="#e8ebe5"/>
      <stop offset="1" stop-color="#7e9489"/>
    </linearGradient>
    <linearGradient id="photoShelf" x1="0" y1="0" x2="1" y2="1">
      <stop offset="0" stop-color="#f4f0e8"/>
      <stop offset="0.5" stop-color="#d9d5c9"/>
      <stop offset="1" stop-color="#79887f"/>
    </linearGradient>
    <filter id="realShadow" x="-20%" y="-20%" width="140%" height="150%">
      <feDropShadow dx="0" dy="18" stdDeviation="20" flood-color="#141817" flood-opacity="0.10"/>
    </filter>
    <filter id="smallShadow" x="-20%" y="-20%" width="140%" height="150%">
      <feDropShadow dx="0" dy="10" stdDeviation="11" flood-color="#141817" flood-opacity="0.08"/>
    </filter>
    <marker id="arrowHead" viewBox="0 0 10 10" refX="8" refY="5" markerWidth="8" markerHeight="8" orient="auto-start-reverse">
      <path d="M0 0L10 5L0 10z" fill="#343a38"/>
    </marker>
  </defs>
  <rect width="1200" height="640" fill="url(#softBg)"/>
  
    <g filter="url(#realShadow)">
    <rect x="86" y="118" width="296" height="368" rx="28" fill="#fff" stroke="#e2e0db"/>
    <text x="120" y="158" font-family="Inter, Arial, sans-serif" font-size="15" font-weight="760" fill="#9a9d99" text-anchor="start">CHANNEL SIGNALS</text><g>
    <circle cx="120" cy="221" r="7" fill="#00A651"/>
    <text x="142" y="226" font-family="Inter, Arial, sans-serif" font-size="18" font-weight="680" fill="#111716" text-anchor="start">Search</text>
    <g>
    <rect x="298" y="202" width="70" height="32" rx="16" fill="#dff5e8"/>
    <text x="315" y="224" font-family="Inter, Arial, sans-serif" font-size="15" font-weight="680" fill="#007a3d" text-anchor="start">Keep</text>
  </g>
  </g><g>
    <circle cx="120" cy="283" r="7" fill="#ffcc00"/>
    <text x="142" y="288" font-family="Inter, Arial, sans-serif" font-size="18" font-weight="680" fill="#111716" text-anchor="start">Creator</text>
    <g>
    <rect x="298" y="264" width="70" height="32" rx="16" fill="#f5ead5"/>
    <text x="315" y="286" font-family="Inter, Arial, sans-serif" font-size="15" font-weight="680" fill="#7a5a00" text-anchor="start">Test</text>
  </g>
  </g><g>
    <circle cx="120" cy="345" r="7" fill="#00c8b3"/>
    <text x="142" y="350" font-family="Inter, Arial, sans-serif" font-size="18" font-weight="680" fill="#111716" text-anchor="start">Email</text>
    <g>
    <rect x="298" y="326" width="97" height="32" rx="16" fill="#f5ead5"/>
    <text x="315" y="348" font-family="Inter, Arial, sans-serif" font-size="15" font-weight="680" fill="#7a5a00" text-anchor="start">Nurture</text>
  </g>
  </g><g>
    <circle cx="120" cy="407" r="7" fill="#b7bdb8"/>
    <text x="142" y="412" font-family="Inter, Arial, sans-serif" font-size="18" font-weight="680" fill="#111716" text-anchor="start">Community</text>
    <g>
    <rect x="298" y="388" width="79" height="32" rx="16" fill="#f5ead5"/>
    <text x="315" y="410" font-family="Inter, Arial, sans-serif" font-size="15" font-weight="680" fill="#7a5a00" text-anchor="start">Watch</text>
  </g>
  </g>
  </g>
    <path d="M382 302H454" fill="none" stroke="#343a38" stroke-width="3" marker-end="url(#arrowHead)"/>
    <g filter="url(#realShadow)">
    <rect x="454" y="94" width="336" height="418" rx="28" fill="#fff" stroke="#e2e0db"/>
    <text x="490" y="134" font-family="Inter, Arial, sans-serif" font-size="15" font-weight="760" fill="#9a9d99" text-anchor="start">ENTRY ROI REVIEW</text><g>
    <rect x="490" y="176" width="240" height="76" rx="18" fill="#fff" stroke="#e2e0db"/>
    <text x="516" y="222" font-family="Inter, Arial, sans-serif" font-size="20" font-weight="700" fill="#111716" text-anchor="start">Market response</text>
    <rect x="650" y="208" width="58" height="10" rx="5" fill="#e4e8e4"/>
    <rect x="650" y="208" width="39" height="10" rx="5" fill="#00A651"/>
  </g><g>
    <rect x="490" y="280" width="240" height="76" rx="18" fill="#fff" stroke="#e2e0db"/>
    <text x="516" y="326" font-family="Inter, Arial, sans-serif" font-size="20" font-weight="700" fill="#111716" text-anchor="start">Operating load</text>
    <rect x="650" y="312" width="58" height="10" rx="5" fill="#e4e8e4"/>
    <rect x="650" y="312" width="27" height="10" rx="5" fill="#ffcc00"/>
  </g><g>
    <rect x="490" y="416" width="151" height="32" rx="16" fill="#efefec"/>
    <text x="507" y="438" font-family="Inter, Arial, sans-serif" font-size="15" font-weight="680" fill="#3d4541" text-anchor="start">Decision view</text>
  </g>
  </g>
    <path d="M790 302H862" fill="none" stroke="#343a38" stroke-width="3" marker-end="url(#arrowHead)"/>
    <g filter="url(#realShadow)">
    <rect x="862" y="158" width="248" height="278" rx="28" fill="#fff" stroke="#e2e0db"/>
    <text x="894" y="198" font-family="Inter, Arial, sans-serif" font-size="15" font-weight="760" fill="#9a9d99" text-anchor="start">NEXT DECISION</text><text x="894" y="244" font-family="Inter, Arial, sans-serif" font-size="21" font-weight="520" fill="#2f3432" text-anchor="start">Optimize before scaling</text><g transform="translate(1030 344)"><circle cx="0" cy="0" r="15" fill="#00A651"/><path d="M-7 0l5 5 10-12" fill="none" stroke="#fff" stroke-width="4" stroke-linecap="round" stroke-linejoin="round"/></g>
  </g>
  
</svg>