<?xml version="1.0" encoding="UTF-8"?>
<svg xmlns="http://www.w3.org/2000/svg" width="1200" height="640" viewBox="0 0 1200 640" role="img" aria-label="UCYX realistic workflow demo">
  <defs>
    <linearGradient id="softBg" x1="0" y1="0" x2="1" y2="1">
      <stop offset="0" stop-color="#f7f6f3"/>
      <stop offset="1" stop-color="#ebe9e4"/>
    </linearGradient>
    <linearGradient id="photoWarm" x1="0" y1="0" x2="1" y2="1">
      <stop offset="0" stop-color="#f4dfc8"/>
      <stop offset="0.52" stop-color="#d8dfd3"/>
      <stop offset="1" stop-color="#5d7167"/>
    </linearGradient>
    <linearGradient id="photoCool" x1="0" y1="0" x2="1" y2="1">
      <stop offset="0" stop-color="#dce8ef"/>
      <stop offset="0.56" stop-color="#e8ebe5"/>
      <stop offset="1" stop-color="#7e9489"/>
    </linearGradient>
    <linearGradient id="photoShelf" x1="0" y1="0" x2="1" y2="1">
      <stop offset="0" stop-color="#f4f0e8"/>
      <stop offset="0.5" stop-color="#d9d5c9"/>
      <stop offset="1" stop-color="#79887f"/>
    </linearGradient>
    <filter id="realShadow" x="-20%" y="-20%" width="140%" height="150%">
      <feDropShadow dx="0" dy="18" stdDeviation="20" flood-color="#141817" flood-opacity="0.10"/>
    </filter>
    <filter id="smallShadow" x="-20%" y="-20%" width="140%" height="150%">
      <feDropShadow dx="0" dy="10" stdDeviation="11" flood-color="#141817" flood-opacity="0.08"/>
    </filter>
    <marker id="arrowHead" viewBox="0 0 10 10" refX="8" refY="5" markerWidth="8" markerHeight="8" orient="auto-start-reverse">
      <path d="M0 0L10 5L0 10z" fill="#343a38"/>
    </marker>
  </defs>
  <rect width="1200" height="640" fill="url(#softBg)"/>
  
    <g filter="url(#realShadow)">
    <rect x="108" y="94" width="292" height="404" rx="28" fill="#fff" stroke="#e2e0db"/>
    <text x="140" y="134" font-family="Inter, Arial, sans-serif" font-size="15" font-weight="760" fill="#9a9d99" text-anchor="start">CATEGORY SHORTLIST</text><g>
    <circle cx="140" cy="191" r="7" fill="#00A651"/>
    <text x="162" y="196" font-family="Inter, Arial, sans-serif" font-size="18" font-weight="680" fill="#111716" text-anchor="start">Beauty device</text>
    <g>
    <rect x="318" y="172" width="70" height="32" rx="16" fill="#dff5e8"/>
    <text x="335" y="194" font-family="Inter, Arial, sans-serif" font-size="15" font-weight="680" fill="#007a3d" text-anchor="start">Test</text>
  </g>
  </g><g>
    <circle cx="140" cy="261" r="7" fill="#aeb6b1"/>
    <text x="162" y="266" font-family="Inter, Arial, sans-serif" font-size="18" font-weight="680" fill="#111716" text-anchor="start">Pet travel</text>
    <g>
    <rect x="318" y="242" width="79" height="32" rx="16" fill="#f5ead5"/>
    <text x="335" y="264" font-family="Inter, Arial, sans-serif" font-size="15" font-weight="680" fill="#7a5a00" text-anchor="start">Later</text>
  </g>
  </g><g>
    <circle cx="140" cy="331" r="7" fill="#ffcc00"/>
    <text x="162" y="336" font-family="Inter, Arial, sans-serif" font-size="18" font-weight="680" fill="#111716" text-anchor="start">Home fitness</text>
    <g>
    <rect x="318" y="312" width="79" height="32" rx="16" fill="#f5ead5"/>
    <text x="335" y="334" font-family="Inter, Arial, sans-serif" font-size="15" font-weight="680" fill="#7a5a00" text-anchor="start">Watch</text>
  </g>
  </g><g>
    <circle cx="140" cy="401" r="7" fill="#00A651"/>
    <text x="162" y="406" font-family="Inter, Arial, sans-serif" font-size="18" font-weight="680" fill="#111716" text-anchor="start">Smart home</text>
    <g>
    <rect x="318" y="382" width="70" height="32" rx="16" fill="#dff5e8"/>
    <text x="335" y="404" font-family="Inter, Arial, sans-serif" font-size="15" font-weight="680" fill="#007a3d" text-anchor="start">Test</text>
  </g>
  </g>
  </g>
    <path d="M400 294H470" fill="none" stroke="#343a38" stroke-width="3" marker-end="url(#arrowHead)"/>
    <g filter="url(#realShadow)">
    <rect x="470" y="112" width="304" height="356" rx="28" fill="#fff" stroke="#e2e0db"/>
    <text x="506" y="152" font-family="Inter, Arial, sans-serif" font-size="15" font-weight="760" fill="#9a9d99" text-anchor="start">FIT MAP</text><rect x="506" y="190" width="42" height="34" rx="10" fill="#00A651" opacity="0.88"/><rect x="564" y="190" width="42" height="34" rx="10" fill="#d8ddd8" opacity="0.48"/><rect x="622" y="190" width="42" height="34" rx="10" fill="#ffcc00" opacity="0.48"/><rect x="680" y="190" width="42" height="34" rx="10" fill="#00c8b3" opacity="0.88"/><rect x="506" y="240" width="42" height="34" rx="10" fill="#d8ddd8" opacity="0.48"/><rect x="564" y="240" width="42" height="34" rx="10" fill="#ffcc00" opacity="0.48"/><rect x="622" y="240" width="42" height="34" rx="10" fill="#00c8b3" opacity="0.88"/><rect x="680" y="240" width="42" height="34" rx="10" fill="#00A651" opacity="0.48"/><rect x="506" y="290" width="42" height="34" rx="10" fill="#ffcc00" opacity="0.48"/><rect x="564" y="290" width="42" height="34" rx="10" fill="#00c8b3" opacity="0.88"/><rect x="622" y="290" width="42" height="34" rx="10" fill="#00A651" opacity="0.48"/><rect x="680" y="290" width="42" height="34" rx="10" fill="#d8ddd8" opacity="0.48"/><rect x="506" y="340" width="42" height="34" rx="10" fill="#00c8b3" opacity="0.88"/><rect x="564" y="340" width="42" height="34" rx="10" fill="#00A651" opacity="0.48"/><rect x="622" y="340" width="42" height="34" rx="10" fill="#d8ddd8" opacity="0.48"/><rect x="680" y="340" width="42" height="34" rx="10" fill="#ffcc00" opacity="0.88"/><g>
    <rect x="506" y="410" width="151" height="32" rx="16" fill="#dff5e8"/>
    <text x="523" y="432" font-family="Inter, Arial, sans-serif" font-size="15" font-weight="680" fill="#007a3d" text-anchor="start">Priority view</text>
  </g>
  </g>
    <path d="M774 294H842" fill="none" stroke="#343a38" stroke-width="3" marker-end="url(#arrowHead)"/>
    <g filter="url(#realShadow)">
    <rect x="842" y="170" width="254" height="246" rx="28" fill="#fff" stroke="#e2e0db"/>
    <text x="874" y="210" font-family="Inter, Arial, sans-serif" font-size="15" font-weight="760" fill="#9a9d99" text-anchor="start">DECISION</text><text x="874" y="254" font-family="Inter, Arial, sans-serif" font-size="21" font-weight="520" fill="#2f3432" text-anchor="start">Pick one narrow entry lane</text><rect x="874" y="294" width="150" height="8" rx="4" fill="#d6dad6"/><rect x="874" y="316" width="104" height="8" rx="4" fill="#d6dad6"/><g transform="translate(1030 354)"><circle cx="0" cy="0" r="15" fill="#00A651"/><path d="M-7 0l5 5 10-12" fill="none" stroke="#fff" stroke-width="4" stroke-linecap="round" stroke-linejoin="round"/></g>
  </g>
  
</svg>