<?xml version="1.0" encoding="UTF-8"?>
<svg xmlns="http://www.w3.org/2000/svg" width="1200" height="640" viewBox="0 0 1200 640" role="img" aria-label="UCYX realistic workflow demo">
  <defs>
    <linearGradient id="softBg" x1="0" y1="0" x2="1" y2="1">
      <stop offset="0" stop-color="#f7f6f3"/>
      <stop offset="1" stop-color="#ebe9e4"/>
    </linearGradient>
    <linearGradient id="photoWarm" x1="0" y1="0" x2="1" y2="1">
      <stop offset="0" stop-color="#f4dfc8"/>
      <stop offset="0.52" stop-color="#d8dfd3"/>
      <stop offset="1" stop-color="#5d7167"/>
    </linearGradient>
    <linearGradient id="photoCool" x1="0" y1="0" x2="1" y2="1">
      <stop offset="0" stop-color="#dce8ef"/>
      <stop offset="0.56" stop-color="#e8ebe5"/>
      <stop offset="1" stop-color="#7e9489"/>
    </linearGradient>
    <linearGradient id="photoShelf" x1="0" y1="0" x2="1" y2="1">
      <stop offset="0" stop-color="#f4f0e8"/>
      <stop offset="0.5" stop-color="#d9d5c9"/>
      <stop offset="1" stop-color="#79887f"/>
    </linearGradient>
    <filter id="realShadow" x="-20%" y="-20%" width="140%" height="150%">
      <feDropShadow dx="0" dy="18" stdDeviation="20" flood-color="#141817" flood-opacity="0.10"/>
    </filter>
    <filter id="smallShadow" x="-20%" y="-20%" width="140%" height="150%">
      <feDropShadow dx="0" dy="10" stdDeviation="11" flood-color="#141817" flood-opacity="0.08"/>
    </filter>
    <marker id="arrowHead" viewBox="0 0 10 10" refX="8" refY="5" markerWidth="8" markerHeight="8" orient="auto-start-reverse">
      <path d="M0 0L10 5L0 10z" fill="#343a38"/>
    </marker>
  </defs>
  <rect width="1200" height="640" fill="url(#softBg)"/>
  
    <g filter="url(#realShadow)">
    <rect x="88" y="104" width="320" height="408" rx="28" fill="#fff" stroke="#e2e0db"/>
    <text x="122" y="144" font-family="Inter, Arial, sans-serif" font-size="15" font-weight="760" fill="#9a9d99" text-anchor="start">CHANNEL QUALITY</text><g>
    <circle cx="122" cy="209" r="7" fill="#00A651"/>
    <text x="144" y="214" font-family="Inter, Arial, sans-serif" font-size="18" font-weight="680" fill="#111716" text-anchor="start">Intent</text>
    <g>
    <rect x="300" y="190" width="70" height="32" rx="16" fill="#dff5e8"/>
    <text x="317" y="212" font-family="Inter, Arial, sans-serif" font-size="15" font-weight="680" fill="#007a3d" text-anchor="start">Good</text>
  </g>
  </g><g>
    <circle cx="122" cy="275" r="7" fill="#00c8b3"/>
    <text x="144" y="280" font-family="Inter, Arial, sans-serif" font-size="18" font-weight="680" fill="#111716" text-anchor="start">Feedback</text>
    <g>
    <rect x="300" y="256" width="88" height="32" rx="16" fill="#f5ead5"/>
    <text x="317" y="278" font-family="Inter, Arial, sans-serif" font-size="15" font-weight="680" fill="#7a5a00" text-anchor="start">Useful</text>
  </g>
  </g><g>
    <circle cx="122" cy="341" r="7" fill="#ffcc00"/>
    <text x="144" y="346" font-family="Inter, Arial, sans-serif" font-size="18" font-weight="680" fill="#111716" text-anchor="start">Cost pressure</text>
    <g>
    <rect x="300" y="322" width="79" height="32" rx="16" fill="#f5ead5"/>
    <text x="317" y="344" font-family="Inter, Arial, sans-serif" font-size="15" font-weight="680" fill="#7a5a00" text-anchor="start">Watch</text>
  </g>
  </g><g>
    <circle cx="122" cy="407" r="7" fill="#00A651"/>
    <text x="144" y="412" font-family="Inter, Arial, sans-serif" font-size="18" font-weight="680" fill="#111716" text-anchor="start">Ops fit</text>
    <g>
    <rect x="300" y="388" width="70" height="32" rx="16" fill="#dff5e8"/>
    <text x="317" y="410" font-family="Inter, Arial, sans-serif" font-size="15" font-weight="680" fill="#007a3d" text-anchor="start">Good</text>
  </g>
  </g>
  </g>
    <path d="M408 306H482" fill="none" stroke="#343a38" stroke-width="3" marker-end="url(#arrowHead)"/>
    <g filter="url(#realShadow)">
    <rect x="482" y="142" width="292" height="318" rx="28" fill="#fff" stroke="#e2e0db"/>
    <text x="516" y="182" font-family="Inter, Arial, sans-serif" font-size="15" font-weight="760" fill="#9a9d99" text-anchor="start">READOUT</text><rect x="522" y="338" width="28" height="62" rx="8" fill="#00A651" opacity="0.28"/><rect x="564" y="308" width="28" height="92" rx="8" fill="#00A651" opacity="0.42000000000000004"/><rect x="606" y="278" width="28" height="122" rx="8" fill="#00A651" opacity="0.56"/><rect x="648" y="248" width="28" height="152" rx="8" fill="#00A651" opacity="0.7000000000000001"/><rect x="516" y="238" width="180" height="8" rx="4" fill="#d6dad6"/><rect x="516" y="260" width="128" height="8" rx="4" fill="#d6dad6"/>
  </g>
    <path d="M774 306H846" fill="none" stroke="#343a38" stroke-width="3" marker-end="url(#arrowHead)"/>
    <g filter="url(#realShadow)">
    <rect x="846" y="154" width="264" height="286" rx="28" fill="#fff" stroke="#e2e0db"/>
    <text x="880" y="194" font-family="Inter, Arial, sans-serif" font-size="15" font-weight="760" fill="#9a9d99" text-anchor="start">ACTION</text><text x="880" y="242" font-family="Inter, Arial, sans-serif" font-size="21" font-weight="520" fill="#2f3432" text-anchor="start">Shift budget toward higher-quality signals</text><g>
    <rect x="880" y="324" width="124" height="32" rx="16" fill="#efefec"/>
    <text x="897" y="346" font-family="Inter, Arial, sans-serif" font-size="15" font-weight="680" fill="#3d4541" text-anchor="start">Refine mix</text>
  </g>
  </g>
  
</svg>