<?xml version="1.0" encoding="UTF-8"?>
<svg xmlns="http://www.w3.org/2000/svg" width="1200" height="640" viewBox="0 0 1200 640" role="img" aria-label="UCYX realistic workflow demo">
  <defs>
    <linearGradient id="softBg" x1="0" y1="0" x2="1" y2="1">
      <stop offset="0" stop-color="#f7f6f3"/>
      <stop offset="1" stop-color="#ebe9e4"/>
    </linearGradient>
    <linearGradient id="photoWarm" x1="0" y1="0" x2="1" y2="1">
      <stop offset="0" stop-color="#f4dfc8"/>
      <stop offset="0.52" stop-color="#d8dfd3"/>
      <stop offset="1" stop-color="#5d7167"/>
    </linearGradient>
    <linearGradient id="photoCool" x1="0" y1="0" x2="1" y2="1">
      <stop offset="0" stop-color="#dce8ef"/>
      <stop offset="0.56" stop-color="#e8ebe5"/>
      <stop offset="1" stop-color="#7e9489"/>
    </linearGradient>
    <linearGradient id="photoShelf" x1="0" y1="0" x2="1" y2="1">
      <stop offset="0" stop-color="#f4f0e8"/>
      <stop offset="0.5" stop-color="#d9d5c9"/>
      <stop offset="1" stop-color="#79887f"/>
    </linearGradient>
    <filter id="realShadow" x="-20%" y="-20%" width="140%" height="150%">
      <feDropShadow dx="0" dy="18" stdDeviation="20" flood-color="#141817" flood-opacity="0.10"/>
    </filter>
    <filter id="smallShadow" x="-20%" y="-20%" width="140%" height="150%">
      <feDropShadow dx="0" dy="10" stdDeviation="11" flood-color="#141817" flood-opacity="0.08"/>
    </filter>
    <marker id="arrowHead" viewBox="0 0 10 10" refX="8" refY="5" markerWidth="8" markerHeight="8" orient="auto-start-reverse">
      <path d="M0 0L10 5L0 10z" fill="#343a38"/>
    </marker>
  </defs>
  <rect width="1200" height="640" fill="url(#softBg)"/>
  
    <g filter="url(#realShadow)">
    <rect x="84" y="94" width="314" height="420" rx="28" fill="#fff" stroke="#e2e0db"/>
    <text x="118" y="134" font-family="Inter, Arial, sans-serif" font-size="15" font-weight="760" fill="#9a9d99" text-anchor="start">CHANNEL PLAN</text><g>
    <circle cx="118" cy="201" r="7" fill="#00A651"/>
    <text x="140" y="206" font-family="Inter, Arial, sans-serif" font-size="18" font-weight="680" fill="#111716" text-anchor="start">Search</text>
    <g>
    <rect x="296" y="182" width="79" height="32" rx="16" fill="#dff5e8"/>
    <text x="313" y="204" font-family="Inter, Arial, sans-serif" font-size="15" font-weight="680" fill="#007a3d" text-anchor="start">Start</text>
  </g>
  </g><g>
    <circle cx="118" cy="271" r="7" fill="#00c8b3"/>
    <text x="140" y="276" font-family="Inter, Arial, sans-serif" font-size="18" font-weight="680" fill="#111716" text-anchor="start">Creator</text>
    <g>
    <rect x="296" y="252" width="79" height="32" rx="16" fill="#f5ead5"/>
    <text x="313" y="274" font-family="Inter, Arial, sans-serif" font-size="15" font-weight="680" fill="#7a5a00" text-anchor="start">Brief</text>
  </g>
  </g><g>
    <circle cx="118" cy="341" r="7" fill="#ffcc00"/>
    <text x="140" y="346" font-family="Inter, Arial, sans-serif" font-size="18" font-weight="680" fill="#111716" text-anchor="start">Community</text>
    <g>
    <rect x="296" y="322" width="88" height="32" rx="16" fill="#f5ead5"/>
    <text x="313" y="344" font-family="Inter, Arial, sans-serif" font-size="15" font-weight="680" fill="#7a5a00" text-anchor="start">Listen</text>
  </g>
  </g><g>
    <circle cx="118" cy="411" r="7" fill="#b7bdb8"/>
    <text x="140" y="416" font-family="Inter, Arial, sans-serif" font-size="18" font-weight="680" fill="#111716" text-anchor="start">Retail signal</text>
    <g>
    <rect x="296" y="392" width="79" height="32" rx="16" fill="#f5ead5"/>
    <text x="313" y="414" font-family="Inter, Arial, sans-serif" font-size="15" font-weight="680" fill="#7a5a00" text-anchor="start">Watch</text>
  </g>
  </g>
  </g>
    <path d="M398 306H466" fill="none" stroke="#343a38" stroke-width="3" marker-end="url(#arrowHead)"/>
    <g filter="url(#realShadow)">
    <rect x="466" y="128" width="298" height="336" rx="28" fill="#fff" stroke="#e2e0db"/>
    <text x="500" y="168" font-family="Inter, Arial, sans-serif" font-size="15" font-weight="760" fill="#9a9d99" text-anchor="start">SPRINT WEEK</text><g>
    <rect x="500" y="202" width="210" height="94" rx="12" fill="url(#photoCool)"/>
    <circle cx="642.8" cy="241.48" r="12.22" fill="#dec1a4"/>
    <path d="M621.8 269.68c12-45 72-45 88 0z" fill="#f4f1e8"/>
    <rect x="522" y="266" width="166" height="8" rx="4" fill="#00A651" opacity="0.55"/>
  </g><rect x="500" y="342" width="188" height="8" rx="4" fill="#d6dad6"/><rect x="500" y="364" width="130" height="8" rx="4" fill="#d6dad6"/><g>
    <rect x="500" y="392" width="115" height="32" rx="16" fill="#dff5e8"/>
    <text x="517" y="414" font-family="Inter, Arial, sans-serif" font-size="15" font-weight="680" fill="#007a3d" text-anchor="start">In motion</text>
  </g>
  </g>
    <path d="M764 306H832" fill="none" stroke="#343a38" stroke-width="3" marker-end="url(#arrowHead)"/>
    <g filter="url(#realShadow)">
    <rect x="832" y="158" width="280" height="276" rx="28" fill="#fff" stroke="#e2e0db"/>
    <text x="866" y="198" font-family="Inter, Arial, sans-serif" font-size="15" font-weight="760" fill="#9a9d99" text-anchor="start">COORDINATION</text><text x="866" y="244" font-family="Inter, Arial, sans-serif" font-size="21" font-weight="520" fill="#2f3432" text-anchor="start">Media + creator + local ops</text><g transform="translate(1028 348)"><circle cx="0" cy="0" r="15" fill="#00A651"/><path d="M-7 0l5 5 10-12" fill="none" stroke="#fff" stroke-width="4" stroke-linecap="round" stroke-linejoin="round"/></g>
  </g>
  
</svg>