<?xml version="1.0" encoding="UTF-8"?>
<svg xmlns="http://www.w3.org/2000/svg" width="1200" height="640" viewBox="0 0 1200 640" role="img" aria-label="UCYX realistic workflow demo">
  <defs>
    <linearGradient id="softBg" x1="0" y1="0" x2="1" y2="1">
      <stop offset="0" stop-color="#f7f6f3"/>
      <stop offset="1" stop-color="#ebe9e4"/>
    </linearGradient>
    <linearGradient id="photoWarm" x1="0" y1="0" x2="1" y2="1">
      <stop offset="0" stop-color="#f4dfc8"/>
      <stop offset="0.52" stop-color="#d8dfd3"/>
      <stop offset="1" stop-color="#5d7167"/>
    </linearGradient>
    <linearGradient id="photoCool" x1="0" y1="0" x2="1" y2="1">
      <stop offset="0" stop-color="#dce8ef"/>
      <stop offset="0.56" stop-color="#e8ebe5"/>
      <stop offset="1" stop-color="#7e9489"/>
    </linearGradient>
    <linearGradient id="photoShelf" x1="0" y1="0" x2="1" y2="1">
      <stop offset="0" stop-color="#f4f0e8"/>
      <stop offset="0.5" stop-color="#d9d5c9"/>
      <stop offset="1" stop-color="#79887f"/>
    </linearGradient>
    <filter id="realShadow" x="-20%" y="-20%" width="140%" height="150%">
      <feDropShadow dx="0" dy="18" stdDeviation="20" flood-color="#141817" flood-opacity="0.10"/>
    </filter>
    <filter id="smallShadow" x="-20%" y="-20%" width="140%" height="150%">
      <feDropShadow dx="0" dy="10" stdDeviation="11" flood-color="#141817" flood-opacity="0.08"/>
    </filter>
    <marker id="arrowHead" viewBox="0 0 10 10" refX="8" refY="5" markerWidth="8" markerHeight="8" orient="auto-start-reverse">
      <path d="M0 0L10 5L0 10z" fill="#343a38"/>
    </marker>
  </defs>
  <rect width="1200" height="640" fill="url(#softBg)"/>
  
    <g filter="url(#realShadow)">
    <rect x="112" y="120" width="278" height="324" rx="28" fill="#fff" stroke="#e2e0db"/>
    <text x="144" y="160" font-family="Inter, Arial, sans-serif" font-size="15" font-weight="760" fill="#9a9d99" text-anchor="start">CONCEPT BRIEF</text><rect x="144" y="198" width="170" height="8" rx="4" fill="#d6dad6"/><rect x="144" y="220" width="126" height="8" rx="4" fill="#d6dad6"/><rect x="144" y="242" width="190" height="8" rx="4" fill="#d6dad6"/><g>
    <rect x="144" y="286" width="176" height="96" rx="12" fill="url(#photoWarm)"/>
    <rect x="144" y="286" width="176" height="96" rx="12" fill="#fff" opacity="0.18"/>
    <rect x="193.28" y="322.48" width="38" height="36.480000000000004" rx="9" fill="#f7f6f1" stroke="#d8d8d2"/><rect x="193.28" y="345.52" width="38" height="13.440000000000001" fill="#00A651"/><rect x="228.48" y="310" width="30" height="48.96" rx="13" fill="#f4f3ef" stroke="#d8d8d2"/><rect x="256.64" y="332.08" width="50" height="26.880000000000003" rx="13" fill="#f1eee8" stroke="#d8d8d2"/>
  </g>
  </g>
    <path d="M390 282H458" fill="none" stroke="#343a38" stroke-width="3" marker-end="url(#arrowHead)"/>
    <g filter="url(#realShadow)">
    <rect x="458" y="86" width="336" height="392" rx="28" fill="#fff" stroke="#e2e0db"/>
    <text x="492" y="126" font-family="Inter, Arial, sans-serif" font-size="15" font-weight="760" fill="#9a9d99" text-anchor="start">OFFER TEST</text><g>
    <rect x="492" y="166" width="124" height="174" rx="18" fill="#fff" stroke="#e2e0db"/>
    <text x="518" y="206" font-family="Inter, Arial, sans-serif" font-size="30" font-weight="780" fill="#111716" text-anchor="start">A</text><g>
    <rect x="514" y="226" width="78" height="58" rx="12" fill="url(#photoWarm)"/>
    <rect x="514" y="226" width="78" height="58" rx="12" fill="#fff" opacity="0.18"/>
    <rect x="535.84" y="248.04" width="38" height="22.04" rx="9" fill="#f7f6f1" stroke="#d8d8d2"/><rect x="535.84" y="261.96" width="38" height="8.120000000000001" fill="#00A651"/><rect x="551.44" y="240.5" width="30" height="29.580000000000002" rx="13" fill="#f4f3ef" stroke="#d8d8d2"/><rect x="563.92" y="253.84" width="50" height="16.240000000000002" rx="13" fill="#f1eee8" stroke="#d8d8d2"/>
  </g>
    <rect x="514" y="306" width="78" height="10" rx="5" fill="#e4e8e4"/>
    <rect x="514" y="306" width="58" height="10" rx="5" fill="#00A651"/>
  </g><g>
    <rect x="636" y="166" width="124" height="174" rx="18" fill="#fff" stroke="#e2e0db"/>
    <text x="662" y="206" font-family="Inter, Arial, sans-serif" font-size="30" font-weight="780" fill="#111716" text-anchor="start">B</text><g>
    <rect x="658" y="226" width="78" height="58" rx="12" fill="url(#photoShelf)"/>
    <rect x="658" y="226" width="78" height="58" rx="12" fill="#fff" opacity="0.18"/>
    <rect x="679.84" y="248.04" width="38" height="22.04" rx="9" fill="#f7f6f1" stroke="#d8d8d2"/><rect x="679.84" y="261.96" width="38" height="8.120000000000001" fill="#00A651"/><rect x="695.44" y="240.5" width="30" height="29.580000000000002" rx="13" fill="#f4f3ef" stroke="#d8d8d2"/><rect x="707.92" y="253.84" width="50" height="16.240000000000002" rx="13" fill="#f1eee8" stroke="#d8d8d2"/>
  </g>
    <rect x="658" y="306" width="78" height="10" rx="5" fill="#e4e8e4"/>
    <rect x="658" y="306" width="36" height="10" rx="5" fill="#b8beb8"/>
  </g><g>
    <rect x="520" y="392" width="142" height="32" rx="16" fill="#dff5e8"/>
    <text x="537" y="414" font-family="Inter, Arial, sans-serif" font-size="15" font-weight="680" fill="#007a3d" text-anchor="start">A is clearer</text>
  </g>
  </g>
    <path d="M794 282H864" fill="none" stroke="#343a38" stroke-width="3" marker-end="url(#arrowHead)"/>
    <g filter="url(#realShadow)">
    <rect x="864" y="142" width="244" height="280" rx="28" fill="#fff" stroke="#e2e0db"/>
    <text x="896" y="182" font-family="Inter, Arial, sans-serif" font-size="15" font-weight="760" fill="#9a9d99" text-anchor="start">LAUNCH CANDIDATE</text><g>
    <circle cx="896" cy="237" r="7" fill="#00A651"/>
    <text x="918" y="242" font-family="Inter, Arial, sans-serif" font-size="18" font-weight="680" fill="#111716" text-anchor="start">Clarity</text>
    <g>
    <rect x="1074" y="218" width="88" height="32" rx="16" fill="#dff5e8"/>
    <text x="1091" y="240" font-family="Inter, Arial, sans-serif" font-size="15" font-weight="680" fill="#007a3d" text-anchor="start">Strong</text>
  </g>
  </g><g>
    <circle cx="896" cy="295" r="7" fill="#00A651"/>
    <text x="918" y="300" font-family="Inter, Arial, sans-serif" font-size="18" font-weight="680" fill="#111716" text-anchor="start">Trust</text>
    <g>
    <rect x="1074" y="276" width="70" height="32" rx="16" fill="#dff5e8"/>
    <text x="1091" y="298" font-family="Inter, Arial, sans-serif" font-size="15" font-weight="680" fill="#007a3d" text-anchor="start">Good</text>
  </g>
  </g><g>
    <circle cx="896" cy="353" r="7" fill="#ffcc00"/>
    <text x="918" y="358" font-family="Inter, Arial, sans-serif" font-size="18" font-weight="680" fill="#111716" text-anchor="start">Intent</text>
    <g>
    <rect x="1074" y="334" width="70" height="32" rx="16" fill="#f5ead5"/>
    <text x="1091" y="356" font-family="Inter, Arial, sans-serif" font-size="15" font-weight="680" fill="#7a5a00" text-anchor="start">Test</text>
  </g>
  </g>
  </g>
  
</svg>