<?xml version="1.0" encoding="UTF-8"?>
<svg xmlns="http://www.w3.org/2000/svg" width="1200" height="640" viewBox="0 0 1200 640" role="img" aria-label="UCYX realistic workflow demo">
  <defs>
    <linearGradient id="softBg" x1="0" y1="0" x2="1" y2="1">
      <stop offset="0" stop-color="#f7f6f3"/>
      <stop offset="1" stop-color="#ebe9e4"/>
    </linearGradient>
    <linearGradient id="photoWarm" x1="0" y1="0" x2="1" y2="1">
      <stop offset="0" stop-color="#f4dfc8"/>
      <stop offset="0.52" stop-color="#d8dfd3"/>
      <stop offset="1" stop-color="#5d7167"/>
    </linearGradient>
    <linearGradient id="photoCool" x1="0" y1="0" x2="1" y2="1">
      <stop offset="0" stop-color="#dce8ef"/>
      <stop offset="0.56" stop-color="#e8ebe5"/>
      <stop offset="1" stop-color="#7e9489"/>
    </linearGradient>
    <linearGradient id="photoShelf" x1="0" y1="0" x2="1" y2="1">
      <stop offset="0" stop-color="#f4f0e8"/>
      <stop offset="0.5" stop-color="#d9d5c9"/>
      <stop offset="1" stop-color="#79887f"/>
    </linearGradient>
    <filter id="realShadow" x="-20%" y="-20%" width="140%" height="150%">
      <feDropShadow dx="0" dy="18" stdDeviation="20" flood-color="#141817" flood-opacity="0.10"/>
    </filter>
    <filter id="smallShadow" x="-20%" y="-20%" width="140%" height="150%">
      <feDropShadow dx="0" dy="10" stdDeviation="11" flood-color="#141817" flood-opacity="0.08"/>
    </filter>
    <marker id="arrowHead" viewBox="0 0 10 10" refX="8" refY="5" markerWidth="8" markerHeight="8" orient="auto-start-reverse">
      <path d="M0 0L10 5L0 10z" fill="#343a38"/>
    </marker>
  </defs>
  <rect width="1200" height="640" fill="url(#softBg)"/>
  
    <g filter="url(#realShadow)">
    <rect x="92" y="110" width="300" height="390" rx="28" fill="#fff" stroke="#e2e0db"/>
    <text x="126" y="150" font-family="Inter, Arial, sans-serif" font-size="15" font-weight="760" fill="#9a9d99" text-anchor="start">CREATIVE INPUT</text><g>
    <rect x="126" y="188" width="220" height="104" rx="12" fill="url(#photoCool)"/>
    <circle cx="275.6" cy="231.68" r="13.52" fill="#dec1a4"/>
    <path d="M253.6 262.88c12-45 72-45 88 0z" fill="#f4f1e8"/>
    <rect x="148" y="262" width="176" height="8" rx="4" fill="#00A651" opacity="0.55"/>
  </g><g>
    <rect x="126" y="318" width="220" height="104" rx="12" fill="url(#photoShelf)"/>
    <circle cx="275.6" cy="361.68" r="13.52" fill="#dec1a4"/>
    <path d="M253.6 392.88c12-45 72-45 88 0z" fill="#f4f1e8"/>
    <rect x="148" y="392" width="176" height="8" rx="4" fill="#00A651" opacity="0.55"/>
  </g>
  </g>
    <path d="M392 306H456" fill="none" stroke="#343a38" stroke-width="3" marker-end="url(#arrowHead)"/>
    <g filter="url(#realShadow)">
    <rect x="456" y="84" width="322" height="444" rx="28" fill="#fff" stroke="#e2e0db"/>
    <text x="492" y="124" font-family="Inter, Arial, sans-serif" font-size="15" font-weight="760" fill="#9a9d99" text-anchor="start">FIRST CREATIVE SET</text><g transform="translate(492 184)"><g>
    <rect x="0" y="-34" width="240" height="66" rx="16" fill="#fff" stroke="#e2e0db"/>
    <text x="22" y="8" font-family="Inter, Arial, sans-serif" font-size="20" font-weight="760" fill="#111716" text-anchor="start">Hook</text><rect x="92" y="-2" width="110" height="8" rx="4" fill="#d6dad6"/>
  </g></g><g transform="translate(492 272)"><g>
    <rect x="0" y="-34" width="240" height="66" rx="16" fill="#fff" stroke="#e2e0db"/>
    <text x="22" y="8" font-family="Inter, Arial, sans-serif" font-size="20" font-weight="760" fill="#111716" text-anchor="start">Proof</text><rect x="92" y="-2" width="110" height="8" rx="4" fill="#d6dad6"/>
  </g></g><g transform="translate(492 360)"><g>
    <rect x="0" y="-34" width="240" height="66" rx="16" fill="#fff" stroke="#e2e0db"/>
    <text x="22" y="8" font-family="Inter, Arial, sans-serif" font-size="20" font-weight="760" fill="#111716" text-anchor="start">CTA</text><rect x="92" y="-2" width="110" height="8" rx="4" fill="#d6dad6"/>
  </g></g>
  </g>
    <path d="M778 306H848" fill="none" stroke="#343a38" stroke-width="3" marker-end="url(#arrowHead)"/>
    <g filter="url(#realShadow)">
    <rect x="848" y="156" width="260" height="292" rx="28" fill="#fff" stroke="#e2e0db"/>
    <text x="880" y="196" font-family="Inter, Arial, sans-serif" font-size="15" font-weight="760" fill="#9a9d99" text-anchor="start">RECOMMENDATION</text><text x="880" y="244" font-family="Inter, Arial, sans-serif" font-size="21" font-weight="520" fill="#2f3432" text-anchor="start">Test creator-led proof first</text><g>
    <rect x="880" y="314" width="160" height="32" rx="16" fill="#dff5e8"/>
    <text x="897" y="336" font-family="Inter, Arial, sans-serif" font-size="15" font-weight="680" fill="#007a3d" text-anchor="start">Ready to brief</text>
  </g>
  </g>
  
</svg>