<?xml version="1.0" encoding="UTF-8"?>
<svg xmlns="http://www.w3.org/2000/svg" width="1200" height="640" viewBox="0 0 1200 640" role="img" aria-label="UCYX realistic workflow demo">
  <defs>
    <linearGradient id="softBg" x1="0" y1="0" x2="1" y2="1">
      <stop offset="0" stop-color="#f7f6f3"/>
      <stop offset="1" stop-color="#ebe9e4"/>
    </linearGradient>
    <linearGradient id="photoWarm" x1="0" y1="0" x2="1" y2="1">
      <stop offset="0" stop-color="#f4dfc8"/>
      <stop offset="0.52" stop-color="#d8dfd3"/>
      <stop offset="1" stop-color="#5d7167"/>
    </linearGradient>
    <linearGradient id="photoCool" x1="0" y1="0" x2="1" y2="1">
      <stop offset="0" stop-color="#dce8ef"/>
      <stop offset="0.56" stop-color="#e8ebe5"/>
      <stop offset="1" stop-color="#7e9489"/>
    </linearGradient>
    <linearGradient id="photoShelf" x1="0" y1="0" x2="1" y2="1">
      <stop offset="0" stop-color="#f4f0e8"/>
      <stop offset="0.5" stop-color="#d9d5c9"/>
      <stop offset="1" stop-color="#79887f"/>
    </linearGradient>
    <filter id="realShadow" x="-20%" y="-20%" width="140%" height="150%">
      <feDropShadow dx="0" dy="18" stdDeviation="20" flood-color="#141817" flood-opacity="0.10"/>
    </filter>
    <filter id="smallShadow" x="-20%" y="-20%" width="140%" height="150%">
      <feDropShadow dx="0" dy="10" stdDeviation="11" flood-color="#141817" flood-opacity="0.08"/>
    </filter>
    <marker id="arrowHead" viewBox="0 0 10 10" refX="8" refY="5" markerWidth="8" markerHeight="8" orient="auto-start-reverse">
      <path d="M0 0L10 5L0 10z" fill="#343a38"/>
    </marker>
  </defs>
  <rect width="1200" height="640" fill="url(#softBg)"/>
  
    <g filter="url(#realShadow)">
    <rect x="88" y="120" width="310" height="340" rx="28" fill="#fff" stroke="#e2e0db"/>
    <text x="122" y="160" font-family="Inter, Arial, sans-serif" font-size="15" font-weight="760" fill="#9a9d99" text-anchor="start">CREATOR SHORTLIST</text><g>
    <circle cx="128" cy="218" r="24" fill="#e5f4ee" stroke="#fff" stroke-width="3"/>
    <circle cx="128" cy="213" r="8" fill="#cf9b79"/>
    <path d="M118 209c5-12 22-8 20 5c-8-5-15-4-20-1z" fill="#221d1b"/>
    <path d="M113 235c6-20 24-20 30 0z" fill="#cf9b79"/>
  </g><g>
    <circle cx="162" cy="218" r="24" fill="#f5ead5" stroke="#fff" stroke-width="3"/>
    <circle cx="162" cy="213" r="8" fill="#9f6e50"/>
    <path d="M152 209c5-12 22-8 20 5c-8-5-15-4-20-1z" fill="#3a2018"/>
    <path d="M147 235c6-20 24-20 30 0z" fill="#9f6e50"/>
  </g><g>
    <circle cx="196" cy="218" r="24" fill="#e8edf4" stroke="#fff" stroke-width="3"/>
    <circle cx="196" cy="213" r="8" fill="#e0b38f"/>
    <path d="M186 209c5-12 22-8 20 5c-8-5-15-4-20-1z" fill="#62402d"/>
    <path d="M181 235c6-20 24-20 30 0z" fill="#e0b38f"/>
  </g><g>
    <circle cx="230" cy="218" r="24" fill="#eeeaf8" stroke="#fff" stroke-width="3"/>
    <circle cx="230" cy="213" r="8" fill="#c18d6b"/>
    <path d="M220 209c5-12 22-8 20 5c-8-5-15-4-20-1z" fill="#171717"/>
    <path d="M215 235c6-20 24-20 30 0z" fill="#c18d6b"/>
  </g><rect x="122" y="286" width="210" height="8" rx="4" fill="#d6dad6"/><rect x="122" y="308" width="154" height="8" rx="4" fill="#d6dad6"/><g>
    <rect x="122" y="344" width="133" height="32" rx="16" fill="#dff5e8"/>
    <text x="139" y="366" font-family="Inter, Arial, sans-serif" font-size="15" font-weight="680" fill="#007a3d" text-anchor="start">Brief ready</text>
  </g>
  </g>
    <path d="M398 290H464" fill="none" stroke="#343a38" stroke-width="3" marker-end="url(#arrowHead)"/>
    <g filter="url(#realShadow)">
    <rect x="464" y="92" width="320" height="400" rx="28" fill="#fff" stroke="#e2e0db"/>
    <text x="500" y="132" font-family="Inter, Arial, sans-serif" font-size="15" font-weight="760" fill="#9a9d99" text-anchor="start">MEDIA CREATOR BRIEF</text><g>
    <rect x="500" y="168" width="230" height="104" rx="12" fill="url(#photoShelf)"/>
    <circle cx="656.4" cy="211.68" r="13.52" fill="#dec1a4"/>
    <path d="M633.4 242.88c12-45 72-45 88 0z" fill="#f4f1e8"/>
    <rect x="522" y="242" width="186" height="8" rx="4" fill="#00A651" opacity="0.55"/>
  </g><g>
    <circle cx="500" cy="327" r="7" fill="#00A651"/>
    <text x="522" y="332" font-family="Inter, Arial, sans-serif" font-size="18" font-weight="680" fill="#111716" text-anchor="start">Audience</text>
    <g>
    <rect x="678" y="308" width="61" height="32" rx="16" fill="#dff5e8"/>
    <text x="695" y="330" font-family="Inter, Arial, sans-serif" font-size="15" font-weight="680" fill="#007a3d" text-anchor="start">Set</text>
  </g>
  </g><g>
    <circle cx="500" cy="385" r="7" fill="#00A651"/>
    <text x="522" y="390" font-family="Inter, Arial, sans-serif" font-size="18" font-weight="680" fill="#111716" text-anchor="start">Content angle</text>
    <g>
    <rect x="678" y="366" width="61" height="32" rx="16" fill="#dff5e8"/>
    <text x="695" y="388" font-family="Inter, Arial, sans-serif" font-size="15" font-weight="680" fill="#007a3d" text-anchor="start">Set</text>
  </g>
  </g>
  </g>
    <path d="M784 290H854" fill="none" stroke="#343a38" stroke-width="3" marker-end="url(#arrowHead)"/>
    <g filter="url(#realShadow)">
    <rect x="854" y="150" width="260" height="280" rx="28" fill="#fff" stroke="#e2e0db"/>
    <text x="886" y="190" font-family="Inter, Arial, sans-serif" font-size="15" font-weight="760" fill="#9a9d99" text-anchor="start">HANDOFF</text><text x="886" y="236" font-family="Inter, Arial, sans-serif" font-size="21" font-weight="520" fill="#2f3432" text-anchor="start">Agency can execute</text><g>
    <rect x="886" y="302" width="142" height="32" rx="16" fill="#dff5e8"/>
    <text x="903" y="324" font-family="Inter, Arial, sans-serif" font-size="15" font-weight="680" fill="#007a3d" text-anchor="start">Next: launch</text>
  </g>
  </g>
  
</svg>