<?xml version="1.0" encoding="UTF-8"?>
<svg xmlns="http://www.w3.org/2000/svg" width="1200" height="640" viewBox="0 0 1200 640" role="img" aria-label="UCYX realistic workflow demo">
  <defs>
    <linearGradient id="softBg" x1="0" y1="0" x2="1" y2="1">
      <stop offset="0" stop-color="#f7f6f3"/>
      <stop offset="1" stop-color="#ebe9e4"/>
    </linearGradient>
    <linearGradient id="photoWarm" x1="0" y1="0" x2="1" y2="1">
      <stop offset="0" stop-color="#f4dfc8"/>
      <stop offset="0.52" stop-color="#d8dfd3"/>
      <stop offset="1" stop-color="#5d7167"/>
    </linearGradient>
    <linearGradient id="photoCool" x1="0" y1="0" x2="1" y2="1">
      <stop offset="0" stop-color="#dce8ef"/>
      <stop offset="0.56" stop-color="#e8ebe5"/>
      <stop offset="1" stop-color="#7e9489"/>
    </linearGradient>
    <linearGradient id="photoShelf" x1="0" y1="0" x2="1" y2="1">
      <stop offset="0" stop-color="#f4f0e8"/>
      <stop offset="0.5" stop-color="#d9d5c9"/>
      <stop offset="1" stop-color="#79887f"/>
    </linearGradient>
    <filter id="realShadow" x="-20%" y="-20%" width="140%" height="150%">
      <feDropShadow dx="0" dy="18" stdDeviation="20" flood-color="#141817" flood-opacity="0.10"/>
    </filter>
    <filter id="smallShadow" x="-20%" y="-20%" width="140%" height="150%">
      <feDropShadow dx="0" dy="10" stdDeviation="11" flood-color="#141817" flood-opacity="0.08"/>
    </filter>
    <marker id="arrowHead" viewBox="0 0 10 10" refX="8" refY="5" markerWidth="8" markerHeight="8" orient="auto-start-reverse">
      <path d="M0 0L10 5L0 10z" fill="#343a38"/>
    </marker>
  </defs>
  <rect width="1200" height="640" fill="url(#softBg)"/>
  
    <g filter="url(#realShadow)">
    <rect x="84" y="136" width="294" height="338" rx="28" fill="#fff" stroke="#e2e0db"/>
    <text x="118" y="178" font-family="Inter, Arial, sans-serif" font-size="15" font-weight="760" fill="#9a9d99" text-anchor="start">MARKET OPTIONS</text><g>
    <circle cx="118" cy="233" r="7" fill="#00A651"/>
    <text x="140" y="238" font-family="Inter, Arial, sans-serif" font-size="18" font-weight="680" fill="#111716" text-anchor="start">US</text>
    <g>
    <rect x="296" y="214" width="79" height="32" rx="16" fill="#dff5e8"/>
    <text x="313" y="236" font-family="Inter, Arial, sans-serif" font-size="15" font-weight="680" fill="#007a3d" text-anchor="start">Start</text>
  </g>
  </g><g>
    <circle cx="118" cy="287" r="7" fill="#b7bdb8"/>
    <text x="140" y="292" font-family="Inter, Arial, sans-serif" font-size="18" font-weight="680" fill="#111716" text-anchor="start">Canada</text>
    <g>
    <rect x="296" y="268" width="70" height="32" rx="16" fill="#f5ead5"/>
    <text x="313" y="290" font-family="Inter, Arial, sans-serif" font-size="15" font-weight="680" fill="#7a5a00" text-anchor="start">Hold</text>
  </g>
  </g><g>
    <circle cx="118" cy="341" r="7" fill="#b7bdb8"/>
    <text x="140" y="346" font-family="Inter, Arial, sans-serif" font-size="18" font-weight="680" fill="#111716" text-anchor="start">UK</text>
    <g>
    <rect x="296" y="322" width="70" height="32" rx="16" fill="#f5ead5"/>
    <text x="313" y="344" font-family="Inter, Arial, sans-serif" font-size="15" font-weight="680" fill="#7a5a00" text-anchor="start">Hold</text>
  </g>
  </g><g>
    <circle cx="118" cy="395" r="7" fill="#b7bdb8"/>
    <text x="140" y="400" font-family="Inter, Arial, sans-serif" font-size="18" font-weight="680" fill="#111716" text-anchor="start">SEA</text>
    <g>
    <rect x="296" y="376" width="70" height="32" rx="16" fill="#f5ead5"/>
    <text x="313" y="398" font-family="Inter, Arial, sans-serif" font-size="15" font-weight="680" fill="#7a5a00" text-anchor="start">Hold</text>
  </g>
  </g>
  </g>
    <path d="M378 306H454" fill="none" stroke="#343a38" stroke-width="3" marker-end="url(#arrowHead)"/>
    <g filter="url(#realShadow)">
    <rect x="454" y="88" width="326" height="430" rx="28" fill="#fff" stroke="#e2e0db"/>
    <text x="490" y="130" font-family="Inter, Arial, sans-serif" font-size="15" font-weight="760" fill="#9a9d99" text-anchor="start">ENTRY ROUTE</text><g>
    <rect x="490" y="160" width="248" height="136" rx="12" fill="url(#photoShelf)"/>
    <rect x="490" y="160" width="248" height="136" rx="12" fill="#fff" opacity="0.18"/>
    <rect x="559.44" y="211.68" width="38" height="51.68" rx="9" fill="#f7f6f1" stroke="#d8d8d2"/><rect x="559.44" y="244.32" width="38" height="19.040000000000003" fill="#00A651"/><rect x="609.04" y="194" width="30" height="69.36" rx="13" fill="#f4f3ef" stroke="#d8d8d2"/><rect x="648.72" y="225.28" width="50" height="38.080000000000005" rx="13" fill="#f1eee8" stroke="#d8d8d2"/>
  </g><text x="490" y="340" font-family="Inter, Arial, sans-serif" font-size="21" font-weight="520" fill="#2f3432" text-anchor="start">One market, one category, one first test.</text>
    <rect x="490" y="390" width="220" height="10" rx="5" fill="#e4e8e4"/>
    <rect x="490" y="390" width="163" height="10" rx="5" fill="#00A651"/>
  </g>
    <path d="M780 306H854" fill="none" stroke="#343a38" stroke-width="3" marker-end="url(#arrowHead)"/>
    <g filter="url(#realShadow)">
    <rect x="854" y="164" width="260" height="252" rx="28" fill="#fff" stroke="#e2e0db"/>
    <text x="886" y="204" font-family="Inter, Arial, sans-serif" font-size="15" font-weight="760" fill="#9a9d99" text-anchor="start">NEXT STEP</text><text x="886" y="250" font-family="Inter, Arial, sans-serif" font-size="21" font-weight="520" fill="#2f3432" text-anchor="start">Build the test brief</text><g>
    <rect x="886" y="302" width="178" height="32" rx="16" fill="#dff5e8"/>
    <text x="903" y="324" font-family="Inter, Arial, sans-serif" font-size="15" font-weight="680" fill="#007a3d" text-anchor="start">Ready for design</text>
  </g>
  </g>
  
</svg>