<?xml version="1.0" encoding="UTF-8"?>
<svg xmlns="http://www.w3.org/2000/svg" width="1200" height="640" viewBox="0 0 1200 640" role="img" aria-label="UCYX realistic workflow demo">
  <defs>
    <linearGradient id="softBg" x1="0" y1="0" x2="1" y2="1">
      <stop offset="0" stop-color="#f7f6f3"/>
      <stop offset="1" stop-color="#ebe9e4"/>
    </linearGradient>
    <linearGradient id="photoWarm" x1="0" y1="0" x2="1" y2="1">
      <stop offset="0" stop-color="#f4dfc8"/>
      <stop offset="0.52" stop-color="#d8dfd3"/>
      <stop offset="1" stop-color="#5d7167"/>
    </linearGradient>
    <linearGradient id="photoCool" x1="0" y1="0" x2="1" y2="1">
      <stop offset="0" stop-color="#dce8ef"/>
      <stop offset="0.56" stop-color="#e8ebe5"/>
      <stop offset="1" stop-color="#7e9489"/>
    </linearGradient>
    <linearGradient id="photoShelf" x1="0" y1="0" x2="1" y2="1">
      <stop offset="0" stop-color="#f4f0e8"/>
      <stop offset="0.5" stop-color="#d9d5c9"/>
      <stop offset="1" stop-color="#79887f"/>
    </linearGradient>
    <filter id="realShadow" x="-20%" y="-20%" width="140%" height="150%">
      <feDropShadow dx="0" dy="18" stdDeviation="20" flood-color="#141817" flood-opacity="0.10"/>
    </filter>
    <filter id="smallShadow" x="-20%" y="-20%" width="140%" height="150%">
      <feDropShadow dx="0" dy="10" stdDeviation="11" flood-color="#141817" flood-opacity="0.08"/>
    </filter>
    <marker id="arrowHead" viewBox="0 0 10 10" refX="8" refY="5" markerWidth="8" markerHeight="8" orient="auto-start-reverse">
      <path d="M0 0L10 5L0 10z" fill="#343a38"/>
    </marker>
  </defs>
  <rect width="1200" height="640" fill="url(#softBg)"/>
  
    <g filter="url(#realShadow)">
    <rect x="92" y="118" width="280" height="150" rx="28" fill="#fff" stroke="#e2e0db"/>
    <text x="122" y="154" font-family="Inter, Arial, sans-serif" font-size="15" font-weight="760" fill="#9a9d99" text-anchor="start">MARKET 1</text><text x="122" y="198" font-family="Inter, Arial, sans-serif" font-size="21" font-weight="520" fill="#2f3432" text-anchor="start">North America</text><g>
    <rect x="122" y="222" width="124" height="32" rx="16" fill="#dff5e8"/>
    <text x="139" y="244" font-family="Inter, Arial, sans-serif" font-size="15" font-weight="680" fill="#007a3d" text-anchor="start">Test first</text>
  </g>
  </g>
    <path d="M372 194H446" fill="none" stroke="#343a38" stroke-width="3" marker-end="url(#arrowHead)"/>
    <g filter="url(#realShadow)">
    <rect x="446" y="82" width="320" height="224" rx="28" fill="#fff" stroke="#e2e0db"/>
    <text x="476" y="120" font-family="Inter, Arial, sans-serif" font-size="15" font-weight="760" fill="#9a9d99" text-anchor="start">CATEGORY SIGNALS</text><g>
    <rect x="476" y="146" width="132" height="92" rx="12" fill="url(#photoWarm)"/>
    <rect x="476" y="146" width="132" height="92" rx="12" fill="#fff" opacity="0.18"/>
    <rect x="512.96" y="180.96" width="38" height="34.96" rx="9" fill="#f7f6f1" stroke="#d8d8d2"/><rect x="512.96" y="203.04" width="38" height="12.88" fill="#00A651"/><rect x="539.36" y="169" width="30" height="46.92" rx="13" fill="#f4f3ef" stroke="#d8d8d2"/><rect x="560.48" y="190.16" width="50" height="25.76" rx="13" fill="#f1eee8" stroke="#d8d8d2"/>
  </g><g>
    <circle cx="632" cy="173" r="7" fill="#00A651"/>
    <text x="654" y="178" font-family="Inter, Arial, sans-serif" font-size="18" font-weight="680" fill="#111716" text-anchor="start">Demand</text>
    <g>
    <rect x="810" y="154" width="70" height="32" rx="16" fill="#dff5e8"/>
    <text x="827" y="176" font-family="Inter, Arial, sans-serif" font-size="15" font-weight="680" fill="#007a3d" text-anchor="start">High</text>
  </g>
  </g><g>
    <circle cx="632" cy="225" r="7" fill="#ffcc00"/>
    <text x="654" y="230" font-family="Inter, Arial, sans-serif" font-size="18" font-weight="680" fill="#111716" text-anchor="start">Competition</text>
    <g>
    <rect x="810" y="206" width="79" height="32" rx="16" fill="#f5ead5"/>
    <text x="827" y="228" font-family="Inter, Arial, sans-serif" font-size="15" font-weight="680" fill="#7a5a00" text-anchor="start">Watch</text>
  </g>
  </g>
  </g>
    <path d="M766 194H838" fill="none" stroke="#343a38" stroke-width="3" marker-end="url(#arrowHead)"/>
    <g filter="url(#realShadow)">
    <rect x="838" y="118" width="270" height="150" rx="28" fill="#fff" stroke="#e2e0db"/>
    <text x="868" y="154" font-family="Inter, Arial, sans-serif" font-size="15" font-weight="760" fill="#9a9d99" text-anchor="start">FIRST TEST</text><text x="868" y="198" font-family="Inter, Arial, sans-serif" font-size="21" font-weight="520" fill="#2f3432" text-anchor="start">Beauty devices</text><g>
    <rect x="868" y="222" width="142" height="32" rx="16" fill="#efefec"/>
    <text x="885" y="244" font-family="Inter, Arial, sans-serif" font-size="15" font-weight="680" fill="#3d4541" text-anchor="start">Narrow scope</text>
  </g>
  </g>
    <g filter="url(#realShadow)">
    <rect x="256" y="376" width="688" height="118" rx="28" fill="#fff" stroke="#e2e0db"/>
    <text x="292" y="416" font-family="Inter, Arial, sans-serif" font-size="15" font-weight="760" fill="#9a9d99" text-anchor="start">ENTRY MEMO</text><text x="292" y="456" font-family="Inter, Arial, sans-serif" font-size="21" font-weight="520" fill="#2f3432" text-anchor="start">Turn market signals into a first test decision.</text>
    <rect x="744" y="432" width="150" height="10" rx="5" fill="#e4e8e4"/>
    <rect x="744" y="432" width="108" height="10" rx="5" fill="#00A651"/>
  </g>
  
</svg>