<?xml version="1.0" encoding="UTF-8"?>
<svg xmlns="http://www.w3.org/2000/svg" width="1200" height="640" viewBox="0 0 1200 640" role="img" aria-label="UCYX realistic workflow demo">
  <defs>
    <linearGradient id="softBg" x1="0" y1="0" x2="1" y2="1">
      <stop offset="0" stop-color="#f7f6f3"/>
      <stop offset="1" stop-color="#ebe9e4"/>
    </linearGradient>
    <linearGradient id="photoWarm" x1="0" y1="0" x2="1" y2="1">
      <stop offset="0" stop-color="#f4dfc8"/>
      <stop offset="0.52" stop-color="#d8dfd3"/>
      <stop offset="1" stop-color="#5d7167"/>
    </linearGradient>
    <linearGradient id="photoCool" x1="0" y1="0" x2="1" y2="1">
      <stop offset="0" stop-color="#dce8ef"/>
      <stop offset="0.56" stop-color="#e8ebe5"/>
      <stop offset="1" stop-color="#7e9489"/>
    </linearGradient>
    <linearGradient id="photoShelf" x1="0" y1="0" x2="1" y2="1">
      <stop offset="0" stop-color="#f4f0e8"/>
      <stop offset="0.5" stop-color="#d9d5c9"/>
      <stop offset="1" stop-color="#79887f"/>
    </linearGradient>
    <filter id="realShadow" x="-20%" y="-20%" width="140%" height="150%">
      <feDropShadow dx="0" dy="18" stdDeviation="20" flood-color="#141817" flood-opacity="0.10"/>
    </filter>
    <filter id="smallShadow" x="-20%" y="-20%" width="140%" height="150%">
      <feDropShadow dx="0" dy="10" stdDeviation="11" flood-color="#141817" flood-opacity="0.08"/>
    </filter>
    <marker id="arrowHead" viewBox="0 0 10 10" refX="8" refY="5" markerWidth="8" markerHeight="8" orient="auto-start-reverse">
      <path d="M0 0L10 5L0 10z" fill="#343a38"/>
    </marker>
  </defs>
  <rect width="1200" height="640" fill="url(#softBg)"/>
  
    <g filter="url(#realShadow)">
    <rect x="92" y="120" width="300" height="324" rx="28" fill="#fff" stroke="#e2e0db"/>
    <text x="126" y="160" font-family="Inter, Arial, sans-serif" font-size="15" font-weight="760" fill="#9a9d99" text-anchor="start">OFFER A</text><g>
    <rect x="126" y="194" width="220" height="104" rx="12" fill="url(#photoCool)"/>
    <circle cx="275.6" cy="237.68" r="13.52" fill="#dec1a4"/>
    <path d="M253.6 268.88c12-45 72-45 88 0z" fill="#f4f1e8"/>
    <rect x="148" y="268" width="176" height="8" rx="4" fill="#00A651" opacity="0.55"/>
  </g><text x="126" y="346" font-family="Inter, Arial, sans-serif" font-size="21" font-weight="520" fill="#2f3432" text-anchor="start">Simple benefit</text><g>
    <rect x="126" y="374" width="79" height="32" rx="16" fill="#efefec"/>
    <text x="143" y="396" font-family="Inter, Arial, sans-serif" font-size="15" font-weight="680" fill="#3d4541" text-anchor="start">Clear</text>
  </g>
  </g>
    <path d="M392 282H452" fill="none" stroke="#343a38" stroke-width="3" marker-end="url(#arrowHead)"/>
    <g filter="url(#realShadow)">
    <rect x="452" y="88" width="300" height="388" rx="28" fill="#fff" stroke="#e2e0db"/>
    <text x="486" y="128" font-family="Inter, Arial, sans-serif" font-size="15" font-weight="760" fill="#9a9d99" text-anchor="start">OFFER B</text><g>
    <rect x="486" y="162" width="220" height="104" rx="12" fill="url(#photoShelf)"/>
    <circle cx="635.6" cy="205.68" r="13.52" fill="#dec1a4"/>
    <path d="M613.6 236.88c12-45 72-45 88 0z" fill="#f4f1e8"/>
    <rect x="508" y="236" width="176" height="8" rx="4" fill="#00A651" opacity="0.55"/>
  </g><text x="486" y="314" font-family="Inter, Arial, sans-serif" font-size="21" font-weight="520" fill="#2f3432" text-anchor="start">Premium positioning</text><g>
    <rect x="486" y="346" width="133" height="32" rx="16" fill="#f5ead5"/>
    <text x="503" y="368" font-family="Inter, Arial, sans-serif" font-size="15" font-weight="680" fill="#7a5a00" text-anchor="start">Needs proof</text>
  </g><rect x="486" y="400" width="190" height="8" rx="4" fill="#d6dad6"/><rect x="486" y="422" width="126" height="8" rx="4" fill="#d6dad6"/>
  </g>
    <path d="M752 282H812" fill="none" stroke="#343a38" stroke-width="3" marker-end="url(#arrowHead)"/>
    <g filter="url(#realShadow)">
    <rect x="812" y="120" width="296" height="324" rx="28" fill="#fff" stroke="#e2e0db"/>
    <text x="846" y="160" font-family="Inter, Arial, sans-serif" font-size="15" font-weight="760" fill="#9a9d99" text-anchor="start">BEST MESSAGE</text><text x="846" y="212" font-family="Inter, Arial, sans-serif" font-size="21" font-weight="520" fill="#2f3432" text-anchor="start">Specific + credible wins</text>
    <rect x="846" y="270" width="192" height="10" rx="5" fill="#e4e8e4"/>
    <rect x="846" y="270" width="150" height="10" rx="5" fill="#00A651"/><g transform="translate(1030 352)"><circle cx="0" cy="0" r="15" fill="#00A651"/><path d="M-7 0l5 5 10-12" fill="none" stroke="#fff" stroke-width="4" stroke-linecap="round" stroke-linejoin="round"/></g>
  </g>
  
</svg>