<svg xmlns="http://www.w3.org/2000/svg" width="1200" height="630" viewBox="0 0 1200 630" role="img" aria-label="UCYX market entry support for Chinese brands">
  <defs>
    <linearGradient id="bg" x1="0" y1="0" x2="1" y2="1">
      <stop offset="0" stop-color="#ffffff"/>
      <stop offset="1" stop-color="#eef4f0"/>
    </linearGradient>
    <radialGradient id="pulse" cx="72%" cy="42%" r="50%">
      <stop offset="0" stop-color="#00a651" stop-opacity="0.18"/>
      <stop offset="1" stop-color="#00a651" stop-opacity="0"/>
    </radialGradient>
    <filter id="shadow" x="-20%" y="-20%" width="140%" height="140%">
      <feDropShadow dx="0" dy="24" stdDeviation="30" flood-color="#0b0f0d" flood-opacity="0.12"/>
    </filter>
  </defs>
  <rect width="1200" height="630" fill="url(#bg)"/>
  <rect width="1200" height="630" fill="url(#pulse)"/>
  <g opacity="0.22" fill="none" stroke="#00a651" stroke-width="3">
    <path d="M690 278 C780 218 858 220 970 172"/>
    <path d="M690 278 C802 304 888 330 1048 308"/>
    <path d="M690 278 C786 382 884 432 1026 486"/>
  </g>
  <g fill="#00a651">
    <circle cx="690" cy="278" r="12"/>
    <circle cx="970" cy="172" r="7"/>
    <circle cx="1048" cy="308" r="7"/>
    <circle cx="1026" cy="486" r="7"/>
  </g>
  <g transform="translate(76 72)">
    <text x="0" y="0" dominant-baseline="hanging" font-family="Inter, Arial, sans-serif" font-size="54" font-weight="900" fill="#12104a" font-style="italic">UCYX</text>
    <rect x="202" y="30" width="28" height="36" rx="6" fill="#ffcc00"/>
    <rect x="242" y="16" width="28" height="20" rx="6" fill="#34c759"/>
    <rect x="282" y="0" width="28" height="20" rx="6" fill="#00c8b3"/>
    <rect x="326" y="0" width="28" height="66" rx="6" fill="#6155f5"/>
  </g>
  <g transform="translate(76 178)">
    <text x="0" y="0" font-family="Inter, Arial, sans-serif" font-size="82" font-weight="900" fill="#0b0f0d">Market entry support</text>
    <text x="0" y="96" font-family="Inter, Arial, sans-serif" font-size="82" font-weight="900" fill="#0b0f0d">for Chinese brands.</text>
    <text x="0" y="210" font-family="Inter, Arial, sans-serif" font-size="31" font-weight="500" fill="#46514c">Decide where to enter, design the test, coordinate delivery, and evaluate ROI.</text>
  </g>
  <g transform="translate(76 505)" filter="url(#shadow)">
    <rect x="0" y="0" width="238" height="58" rx="29" fill="#00a651"/>
    <text x="30" y="37" font-family="Inter, Arial, sans-serif" font-size="20" font-weight="850" fill="#ffffff">Book a diagnostic</text>
    <path d="M193 20 210 29 193 38" fill="none" stroke="#ffffff" stroke-width="3" stroke-linecap="round" stroke-linejoin="round"/>
  </g>
  <g transform="translate(438 486)" fill="#0b0f0d">
    <rect x="0" y="0" width="1" height="88" opacity="0.16"/>
    <text x="36" y="28" font-family="Inter, Arial, sans-serif" font-size="20" font-weight="850">Strategy</text>
    <text x="172" y="28" font-family="Inter, Arial, sans-serif" font-size="20" font-weight="850">Design</text>
    <text x="298" y="28" font-family="Inter, Arial, sans-serif" font-size="20" font-weight="850">Delivery</text>
    <text x="430" y="28" font-family="Inter, Arial, sans-serif" font-size="20" font-weight="850">ROI review</text>
    <g fill="#00a651">
      <circle cx="18" cy="22" r="5"/>
      <circle cx="154" cy="22" r="5"/>
      <circle cx="280" cy="22" r="5"/>
      <circle cx="412" cy="22" r="5"/>
    </g>
  </g>
</svg>
